#!OML:ASF F:\VICON\USERDATA\INSTALL\rory3\rory3.ASF
:FULLY-SPECIFIED
:DEGREES
44
root 0.19355297200104168 17.57202510041396 21.683156245748176 0.5517476500100481 -3.1361175793913683 -4.171608217498257
lfemur -29.22530744859534 -2.500886434809477 -18.082343232014015
ltibia 31.193380745820157
lfoot 1.5020872127771034 -5.109238613372093
ltoes -3.701707394720794
rfemur 13.638196970492391 2.936914790920138 29.99897223497637
rtibia 61.6206636377143
rfoot 15.675796228827998 4.329830158131649
rtoes 2.3552145471557564
lowerback 10.889424564810104 3.268532201052287 4.992912992569116
upperback -0.9135394005850528 5.085216545427076 0.7621797437587179
thorax -6.955386600815949 2.2882560544205512 -2.8035921619565514
lowerneck -18.639625004837278 -4.555527509742287 -1.6014611682160915
upperneck 17.46496204003698 -6.372936868448272 2.7035192514142303
head 8.629538697090823 -2.797050046230633 0.4418267564111222
lclavicle -1.9805725839360444e-15 8.818927878552959e-16
lhumerus -56.85129994711469 2.676642193767438 88.17526744659062
lradius 56.506580460042706
lwrist 13.283438295704942
lhand -23.262040036677718 14.822961334574584
lfingers 7.125019999999999
lthumb 3.1898894225389562 44.7840597227881
rclavicle -1.9805725839360444e-15 8.818927878552959e-16
rhumerus -31.960924701820808 0.03858906785029159 -90.93644372666988
rradius 72.73537253549549
rwrist -4.846110131737312
rhand -18.231286443871802 31.945523127925785
rfingers 7.125019999999999
rthumb 8.04693216108386 2.1553533782272076
45
root 0.3044350676584961 17.712924799894683 22.45104179200218 -0.41376206854031317 -3.4101694869976287 -2.6676918529230154
lfemur -25.66481702375838 -1.9817346269081644 -21.223218478196063
ltibia 34.67572611010001
lfoot -1.508303528883399 -4.990612392709883
ltoes -1.9049116671301372
rfemur 4.836796851365634 1.3034198631310963 26.895643678449417
rtibia 77.67897256657079
rfoot 26.47614360564679 2.5817307752021446
rtoes 14.516744114566276
lowerback 11.493742121722272 3.1442517010847912 3.2468545582098565
upperback -0.774691802550413 4.71178227012491 0.2677582425075118
thorax -7.172205109840486 2.1484077955324494 -2.1852443327706315
lowerneck -18.611171278923237 -4.268290652234028 -1.6986274121503273
upperneck 17.477035848160817 -6.000601444780913 2.74435571524706
head 8.639946181576933 -2.6109694327123822 0.4912521035595639
lclavicle -2.4290106951575445e-15 5.674261000290045e-16
lhumerus -56.14047829675596 2.0957797194400554 88.1403189827523
lradius 56.79456727806987
lwrist 14.731732072860726
lhand -23.81654998645198 14.513873773648866
lfingers 7.125019999999999
lthumb 2.6543554871448873 44.4721401808391
rclavicle -2.429010695157545e-15 5.674261000290045e-16
rhumerus -34.02317893946075 -1.9497264690179312 -90.56869780017988
rradius 71.11676132120108
rwrist -3.6948470554958655
rhand -17.754106505166334 31.44271203299425
rfingers 7.125019999999999
rthumb 8.507449679917848 1.6537661685558194
46
root 0.37810492547741925 17.820728622055842 23.437885541131173 -1.216365585241312 -3.6458322265127414 -1.2572715314759193
lfemur -20.654466658229094 -2.209075576438653 -23.708388575494453
ltibia 35.33816910443558
lfoot -5.443989011308187 -3.089339376713642
ltoes -0.7898449703105124
rfemur -5.66251641780544 -0.4897388937038687 24.27866868276622
rtibia 92.7722125199264
rfoot 27.709808699792497 -1.5442643303528643
rtoes 21.595242843343726
lowerback 12.190605698324575 2.8582511898256744 1.5792250443602434
upperback -0.47359795502960156 4.125179265628104 -0.016882732938824585
thorax -7.326699585660013 1.9123411325681077 -1.352083215537229
lowerneck -18.62193833358817 -3.711624447166894 -1.738973563956612
upperneck 17.291872776067397 -5.2361797477244 2.645768930812808
head 8.594762264827867 -2.2580075586630945 0.5211170757513035
lclavicle -2.5675026340181813e-15 4.702428290131102e-16
lhumerus -54.00967993835819 0.680380131934732 88.71769155025446
lradius 57.80893411639986
lwrist 16.53163864269825
lhand -25.16247072354103 13.282849619751929
lfingers 7.125019999999999
lthumb 1.3545605211440588 43.24665974761553
rclavicle -2.5675026340181813e-15 4.702428290131103e-16
rhumerus -35.37272028482088 -3.856979161761358 -90.18740866826246
rradius 69.16962093823804
rwrist -2.26223808363733
rhand -17.23346907391958 30.916864533158765
rfingers 7.125019999999999
rthumb 9.00991533900494 1.1054365755060935
47
root 0.41850039032660624 17.888488281420948 24.270852612284727 -1.7938289476048705 -3.3305885206580683 -0.26241068228338893
lfemur -15.736877461284116 -2.8659020393468726 -25.6255898191347
ltibia 34.55689987008608
lfoot -9.19458263101995 -1.2203029978213187
ltoes -0.4368908718614444
rfemur -16.118790735025577 -2.5049850528902784 22.64404209790294
rtibia 102.64242560904287
rfoot 19.775386661558546 -5.175535279894834
rtoes 20.369593531494544
lowerback 12.69721753692918 2.3279738778737222 0.22818918949623535
upperback -0.12344696169698396 3.235208020332171 -0.0903874658262176
thorax -7.3748291210327 1.5313457377129338 -0.4898705679066222
lowerneck -18.54076979746096 -3.118167892380943 -1.7875731157819206
upperneck 17.15422871450499 -4.385062823405302 2.404570849594704
head 8.543354109690599 -1.8844287355036469 0.5259459952490344
lclavicle -2.7752459592960058e-15 3.2458259252498467e-16
lhumerus -50.77403113458372 -1.3021443308249374 89.39966967580948
lradius 58.89463430590955
lwrist 17.27557533528431
lhand -26.079950197703322 12.125911873682504
lfingers 7.125019999999999
lthumb 0.4685518828114309 42.09647770884383
rclavicle -2.7752459592960058e-15 3.2458259252498467e-16
rhumerus -36.538611365294294 -5.629382967851045 -89.77363180444307
rradius 67.47761806683074
rwrist -1.1260917831820554
rhand -16.87424228618697 30.52820650853005
rfingers 7.125019999999999
rthumb 9.356611119002439 0.6943715584686033
48
root 0.458206872350577 17.90039941872271 25.598295564325205 -1.9745372494171392 -2.355783341682392 0.4258409265482812
lfemur -10.943012333946937 -3.3102665528072777 -26.81702672117441
ltibia 34.63328072615105
lfoot -12.314381471857235 0.150178320234732
ltoes 0.061648305514666824
rfemur -25.156909586594224 -4.26440028681782 22.22638100779644
rtibia 105.53664974693766
rfoot 8.929055662982277 -6.925437335782464
rtoes 14.239087813641449
lowerback 13.107768124455413 1.666986240058871 -0.6934319520097978
upperback 0.1788001021455407 2.209738145316348 0.04016827122026356
thorax -7.379550080773328 1.0789521455762923 0.42979291884417975
lowerneck -18.40083065369035 -2.6961127435690693 -1.9337707939058848
upperneck 17.137680578194075 -3.7243474274808195 2.23688557316522
head 8.515891141128746 -1.6090252866599934 0.5637578202921332
lclavicle -2.4160595040347748e-15 5.765532698740406e-16
lhumerus -46.033058990672195 -3.659217836367004 89.93632271010547
lradius 60.22062139801811
lwrist 17.393861738988072
lhand -26.242357181263653 11.87498558181563
lfingers 7.125019999999999
lthumb 0.31174177859703706 41.849381039379146
rclavicle -2.4160595040347748e-15 5.765532698740406e-16
rhumerus -37.81479923361494 -6.582131070275848 -89.39831783169105
rradius 66.65753964553502
rwrist -0.7368023224938216
rhand -16.73616244274766 30.390815257442366
rfingers 7.125019999999999
rthumb 9.489856810925945 0.5647885466736259
49
root 0.4648178577571899 17.83389358314869 25.967784722302707 -1.8037979690453758 -1.3379926661530552 0.8295136709641437
lfemur -7.22445296701574 -3.458908580821955 -27.808030698884572
ltibia 34.25599188372521
lfoot -15.355561012225298 0.6896805275674684
ltoes 0.27293933545928795
rfemur -33.03309150230335 -5.511424742083896 22.04567344344705
rtibia 100.49677763506574
rfoot 0.6810845571162134 -7.831041983062008
rtoes 7.214756089868663
lowerback 13.454464581772392 0.9573808808952962 -1.5702356546802034
upperback 0.3320575717920004 1.1317495354674814 0.24534205444299384
thorax -7.442536364095935 0.6003631768411661 1.249459381329315
lowerneck -18.39403786318012 -2.575956649952937 -2.2323567079719338
upperneck 17.027600643111075 -3.467533484060744 2.2639879217016974
head 8.469110554514794 -1.5109213684730474 0.6497302031434949
lclavicle -2.7637283311005406e-15 3.3306603526758185e-16
lhumerus -41.04874773175238 -6.577848022640642 90.23053069398695
lradius 61.61730080898086
lwrist 17.72921963317509
lhand -26.219806907552858 12.06104009556349
lfingers 7.125019999999999
lthumb 0.33352594867956176 42.03853669485526
rclavicle -2.7637283311005406e-15 3.3306603526758185e-16
rhumerus -39.548396864272554 -6.817265180594747 -89.28405028914179
rradius 66.54752745226945
rwrist -1.2887737477896803
rhand -16.82483609978109 30.35587341195238
rfingers 7.125019999999999
rthumb 9.404208203790779 0.5416783876865185
50
root 0.4344405916980729 17.747938415552895 26.2957569052424 -1.2037359979370859 -0.3095216665372079 1.341222549830766
lfemur -2.9914094625732393 -3.1253383956913057 -28.664222585460127
ltibia 32.741599394835205
lfoot -17.613740176145654 0.9606208883113312
ltoes 0.21687496560825803
rfemur -38.537407093262715 -5.511228868067247 21.45148031735449
rtibia 88.84973871359738
rfoot -2.527880322983954 -9.575103870639847
rtoes 2.5324121939524913
lowerback 13.612540836066504 0.3571372899880659 -2.464070779507229
upperback 0.3593730903965196 0.2082488492292076 0.43734792684276735
thorax -7.471662158364365 0.1921646289896875 2.1000540921137265
lowerneck -18.48133592059819 -2.6480012816975127 -2.519213364320523
upperneck 16.791910113474362 -3.506361178983876 2.471797370470323
head 8.40535178812654 -1.5298878951489419 0.7635049426416454
lclavicle -2.8142517247013105e-15 2.9778073905412555e-16
lhumerus -35.86859832090726 -9.534861257005357 90.33705595513283
lradius 63.65503493271377
lwrist 18.738872018325196
lhand -26.208018840497232 12.541855173492554
lfingers 7.125019999999999
lthumb 0.34488874283173404 42.52292941951482
rclavicle -2.8142517247013105e-15 2.9778073905412555e-16
rhumerus -41.223046649962605 -6.511911925905736 -89.22262719223906
rradius 66.93684948579528
rwrist -2.258897662757902
rhand -16.93042495302205 30.547548830323382
rfingers 7.125019999999999
rthumb 9.302258167661929 0.7606606424385106
